<svg width="21" height="24" viewBox="0 0 21 24" fill="none" xmlns="http://www.w3.org/2000/svg">
<path d="M7.0875 17.64L10.5 14.2427L13.9125 17.64L15.75 15.8107L12.3375 12.4133L15.75 9.016L13.9125 7.18667L10.5 10.584L7.0875 7.18667L5.25 9.016L8.6625 12.4133L5.25 15.8107L7.0875 17.64ZM3.9375 23.52C3.21563 23.52 2.59787 23.2643 2.08425 22.753C1.56975 22.2408 1.3125 21.6253 1.3125 20.9067V3.92H0V1.30667H6.5625V0H14.4375V1.30667H21V3.92H19.6875V20.9067C19.6875 21.6253 19.4307 22.2408 18.9171 22.753C18.4026 23.2643 17.7844 23.52 17.0625 23.52H3.9375Z" fill="#474684"/>
</svg>
